<svg viewBox="0 0 590 590">
    <defs>
        <linearGradient id="a" x1="0%" y1="0" x2="100%" y2="0" gradientUnits="objectBoundingBox">
            <stop offset="0" stop-color="#e2eea3" />
            <stop offset=".33" stop-color="#ea1c78" />
            <stop offset=".67" stop-color="#9f0d63" />
            <stop offset="1" stop-color="#41092e" />
        </linearGradient>
        <linearGradient id="b" x1="0%" y1="0" x2="133%" y2="0" xlink:href="#a" />
        <linearGradient id="c" x1="0%" y1="0" x2="200%" y2="0" xlink:href="#a" />
    </defs>
    <g transform="translate(-80,-80)">
        <path id="base" fill="url(#a)" d="M374.08 82.14 82.14 374.08l291.94 291.94 291.94-291.94L374.08 82.14z" />
        <path id="midd" fill="url(#b)" d="M376.62 154.72 84.68 374.08l291.94 219.36 291.95-219.36-291.95-219.36z" />
        <path id="cent" fill="url(#c)" d="M376.62 228.23 84.68 374.08l291.94 145.85 291.95-145.85-291.95-145.85z" />
    </g>

    <path id="text" transform="scale(0.66) translate(275,140)" fill="#fff"
        d="m 200 100 a 337.6 337.6 90 0 1 48 9.6 a 89.6 89.6 90 0 1 48.8 32 a 121.6 121.6 90 0 1 21.6 59.2 a 824 824 90 0 1 4 92 a 818.4 818.4 90 0 1 -4.8 96 a 128 128 90 0 1 -20.8 60.8 a 91.2 91.2 90 0 1 -49.6 32 a 316 316 90 0 1 -88 10.4 a 446.4 446.4 90 0 1 -67.2 -4.8 a 156 156 90 0 1 -46.4 -13.6 a 76 76 90 0 1 -28.8 -24.8 a 115.2 115.2 90 0 1 -16 -36.8 a 253.6 253.6 90 0 1 -6.4 -52 q -1.6 -28.8 -1.6 -67.2 a 701.6 701.6 90 0 1 5.6 -93.6 a 119.2 119.2 90 0 1 22.4 -59.2 a 93.6 93.6 90 0 1 50.4 -31.2 a 348 348 90 0 1 88 -8.8 z m -40 38.4 a 456 456 90 0 0 -67.2 4 a 54.4 54.4 90 0 0 -36 19.2 a 90.4 90.4 90 0 0 -15.2 46.4 q -3.2 31.2 -3.2 84.8 l 0.8 64 a 260 260 90 0 0 4.8 43.2 a 73.6 73.6 90 0 0 11.2 28.8 a 48 48 90 0 0 21.6 16 a 112 112 90 0 0 33.6 7.2 l 48.8 0.8 l 45.6 -0.8 a 103.2 103.2 90 0 0 32 -7.2 a 49.6 49.6 90 0 0 21.6 -16 a 76.8 76.8 90 0 0 12 -28 a 235.2 235.2 90 0 0 5.6 -44 l 0.8 -64 a 801.6 801.6 90 0 0 -3.2 -84 a 92 92 90 0 0 -16 -46.4 a 54.4 54.4 90 0 0 -35.2 -20 a 388.8 388.8 90 0 0 -63.2 -4 z m 102.4 380.8 a 176 176 90 0 1 20.8 1.6 a 96 96 90 0 1 23.2 5.6 a 62.4 62.4 90 0 1 19.2 12 a 32 32 90 0 1 10.4 19.2 h -136 a 176.8 176.8 90 0 1 -20.8 -1.6 a 96.8 96.8 90 0 1 -23.2 -5.6 a 62.4 62.4 90 0 1 -19.2 -12 a 32 32 90 0 1 -10.4 -19.2 z" />
</svg>