<svg xmlns="http://www.w3.org/2000/svg" xmlns:xlink="http://www.w3.org/1999/xlink" version="1.0" viewBox="0 0 720.5 483.2">
<defs>
<path id="a" fill="none" stroke="#000" stroke-linecap="round" stroke-width="3.8" d="m219 318-88-131"/>
</defs>
<use xlink:href="#a" stroke-linecap="round" stroke-width="3.8" transform="matrix(1.56715 0 0 1.60001 -202 -266)"/>
<pathd="M52 136 39 86l41 30c-12-1-24 7-28 20z" />
<use xlink:href="#a" stroke-linecap="round" stroke-width="3.8" transform="matrix(-1.56715 0 0 1.60001 346 -56)"/>
<pathd="m92 346 13-50-41 30c13-1 24 7 28 20z" />
<use xlink:href="#a" stroke-linecap="round" stroke-width="3.8" transform="matrix(-1.56715 0 0 1.60001 922 -268)"/>
<pathd="m668 134 13-49-41 29c13-1 24 8 28 20z" />
<use xlink:href="#a" stroke-linecap="round" stroke-width="3.8" transform="matrix(1.56715 0 0 1.60001 374 -58)"/>
<path d="m628 344-13-49 41 29c-12-1-23 8-28 20z"/>
<path fill="none" stroke="#000" stroke-width="3" d="M141 245c4-8 19-7 22 0 4 6 16 6 21 0 5-7 15-8 20 0m250-2c4 7 16 8 21 0 4-8 17-7 22 0 4 6 15 8 20 0s19-7 23 0c4 6 15 6 20 0 5-7 15-8 20 0m-252 0c4 7 16 7 21 0 4-8 17-7 22 0 4 6 15 8 20 0s19-7 23 0c4 6 15 6 20 0 5-7 15-8 20 0m-251 1c4 7 16 7 21 0 4-8 17-7 22 0 4 6 15 8 20 0s19-7 23 0c4 6 15 6 20 0 5-7 15-8 20 0"/>
</svg>