<svg xmlns="http://www.w3.org/2000/svg" viewBox="0 0 542.5 207">
  <path d="M318 38.6a42.2 42.2 0 0 1 11 1.2 11.2 11.2 0 0 1 6.1 4 15.2 15.2 0 0 1 2.7 7.4 103 103 0 0 1 .5 11.5 102.3 102.3 0 0 1-.6 12 16 16 0 0 1-2.6 7.6 11.4 11.4 0 0 1-6.2 4 39.5 39.5 0 0 1-11 1.3 55.8 55.8 0 0 1-8.4-.6 19.5 19.5 0 0 1-5.8-1.7 9.5 9.5 0 0 1-3.6-3.1 14.4 14.4 0 0 1-2-4.6 31.7 31.7 0 0 1-.8-6.5q-.2-3.6-.2-8.4a87.7 87.7 0 0 1 .7-11.7 14.9 14.9 0 0 1 2.8-7.4 11.7 11.7 0 0 1 6.3-3.9 43.5 43.5 0 0 1 11-1.1Zm0 4.8a57 57 0 0 0-8.4.5 6.8 6.8 0 0 0-4.5 2.4 11.3 11.3 0 0 0-1.9 5.8q-.4 3.9-.4 10.6l.1 8a32.5 32.5 0 0 0 .6 5.4 9.2 9.2 0 0 0 1.4 3.6 6 6 0 0 0 2.7 2 14 14 0 0 0 4.2.9l6.1.1 5.7-.1a12.9 12.9 0 0 0 4-.9 6.2 6.2 0 0 0 2.7-2 9.6 9.6 0 0 0 1.5-3.5 29.4 29.4 0 0 0 .7-5.5l.1-8a100.2 100.2 0 0 0-.4-10.5 11.5 11.5 0 0 0-2-5.8 6.8 6.8 0 0 0-4.4-2.5 48.6 48.6 0 0 0-7.9-.5ZM330.8 91a22 22 0 0 1 2.6.2 12 12 0 0 1 2.9.7 7.8 7.8 0 0 1 2.4 1.5 4 4 0 0 1 1.3 2.4h-17a22.1 22.1 0 0 1-2.6-.2 12.1 12.1 0 0 1-2.9-.7 7.8 7.8 0 0 1-2.4-1.5 4 4 0 0 1-1.3-2.4Z"/>
  <path d="M289.5 158.4a24.7 24.7 0 0 1 2.1-10.5 23.5 23.5 0 0 1 5.7-7.8 24.9 24.9 0 0 1 8.5-4.9 32.4 32.4 0 0 1 20.7 0 24.9 24.9 0 0 1 8.4 5 23.5 23.5 0 0 1 5.7 7.7 26.7 26.7 0 0 1 0 21 23.5 23.5 0 0 1-5.7 7.7 24.9 24.9 0 0 1-8.4 5 32.4 32.4 0 0 1-20.7 0 24.8 24.8 0 0 1-8.5-5 23.4 23.4 0 0 1-5.7-7.8 24.7 24.7 0 0 1-2.1-10.4Zm58.2 27.4-3.7 4.7a19.2 19.2 0 0 1-3.6 3.5 15 15 0 0 1-4.4 2.1 20.8 20.8 0 0 1-6 .8 17.7 17.7 0 0 1-7.6-1.6q-3.5-1.6-6.9-3.6-3.3-2-6.9-3.6a17.9 17.9 0 0 0-7.5-1.6 10.2 10.2 0 0 0-3.4.6 23.1 23.1 0 0 0-3.2 1.4l-1-1.2a17.6 17.6 0 0 1 10.2-3 27.8 27.8 0 0 1 8 1.3q4 1.1 7.8 2.5 3.8 1.5 7.4 2.6a21.7 21.7 0 0 0 6.6 1.2 16.3 16.3 0 0 0 4.2-.5 12 12 0 0 0 3.3-1.4 14.7 14.7 0 0 0 2.8-2.3l2.7-3Zm-50.6-27.4a27.3 27.3 0 0 0 1.3 8.4 22 22 0 0 0 3.8 7 18.5 18.5 0 0 0 6 5 18.3 18.3 0 0 0 16 0 18.5 18.5 0 0 0 5.9-5 22 22 0 0 0 3.7-7 28 28 0 0 0 0-16.8 22 22 0 0 0-3.7-7.1 18.5 18.5 0 0 0-6-5 18.3 18.3 0 0 0-16 0 18.5 18.5 0 0 0-6 5 22 22 0 0 0-3.7 7 27.4 27.4 0 0 0-1.3 8.5Z"/>
  <path d="M404.9 185.8c4.7-2.4 8.7-3.8 11.8-5.7 5.8-3.3 8.8-8 8.8-22 0-14.2-3-22-14-22s-13.9 7.7-13.9 24c0 12.1 1.6 17.9 7 20l-1 2c-10.9-3.5-13.7-11.2-13.7-22.5 0-15.7 5.3-26 21.6-26 15.2 0 21.7 9 21.7 24 0 19.4-10.3 23.6-21.2 28v.3c6.7 1 12.9 6.6 17.4 6.6 2 0 3.5-1.2 3.5-3.7a13 13 0 0 0-.2-1.6h2.7a17.9 17.9 0 0 1 .2 2c0 4.3-2.6 7.6-8.8 7.6-9.4 0-17.2-7.5-21.2-7.5-2.5 0-5.5 2.4-7.6 4.6l-2-1.8a29.7 29.7 0 0 1 8.9-6.3Z"/>
  <path d="M507.7 191.7a30 30 0 0 1-20.2-6.5 24.3 24.3 0 0 1-9.7-18.1q-.8-11.7 8.2-20.2a28.4 28.4 0 0 1 21-8.3q11.4.3 18.5 8.1 7 7.7 7 19.1a25.6 25.6 0 0 1-7 18.2q-6.9 7.4-17.8 7.7Zm-17.1-46.5q-8.8 6.9-8.8 17.6a24.2 24.2 0 0 0 6.5 16.5q9.3 10.3 20.5 10.3a19.7 19.7 0 0 0 10.2-2.8 20.6 20.6 0 0 0 7.6-7.7 21 21 0 0 0 2.7-10.5q0-10.2-8-19.5a22.5 22.5 0 0 0-17.8-8.3 20.7 20.7 0 0 0-13 4.4Zm-4.8 28.1a8.3 8.3 0 0 1-1.2.1q-1.2 0 1.5-1a55.7 55.7 0 0 1 6.5-1.8 35.9 35.9 0 0 1 7.3-1 10.8 10.8 0 0 1 6.4 2.4l5 4.4a8.2 8.2 0 0 0 5.1 2.3 13.8 13.8 0 0 0 5.7-1.4 28.9 28.9 0 0 0 4.5-2.7l2.1-1.4a8.3 8.3 0 0 1-1 1.4q-2.3 3.1-7.9 5.5a24.5 24.5 0 0 1-7.9 2.2q-2.1.1-4.8-2l-4.8-4.3a11.3 11.3 0 0 0-6-2.7q-1 0-2.8-.3a18.9 18.9 0 0 0-2.4-.2 41 41 0 0 0-5.3.5Z"/>
</svg>