<svg xmlns="http://www.w3.org/2000/svg" viewBox="0 0 305 305">
 <defs>
     <linearGradient id="a2-5" x1="50%" y1="0%" x2="50%" y2="100%" gradientUnits="userSpaceOnUse">
      <stop offset="0" stop-color="#fa0a"/>
      <stop offset="1" stop-color="#F590"/>
    </linearGradient>
    <linearGradient id="a3" x1="-10%" y1="-10%" x2="80%" y2="80%" gradientUnits="userSpaceOnUse">
      <stop offset="0" stop-color="#F59"/>
      <stop offset="1" stop-color="#70Fc"/>
    </linearGradient>
    <linearGradient id="a2" x1="-10%" y1="-10%" x2="80%" y2="80%" gradientUnits="userSpaceOnUse">
      <stop offset="0" stop-color="#fa0"/>
      <stop offset="1" stop-color="#F59"/>
    </linearGradient>
  </defs>
  <rect fill="url(#a3)" x="0" y="0" height="305" width="305" rx="150"/>
  <g fill="url(#a2-5)" transform="translate(39,54) scale(0.75)" stroke="#fff" stroke-width="2">
    <path d="M3 3h100v100H3V3z"/>
    <path d="M103 3h100v100H103V3z"/>
    <path d="M203 3h100v100H203V3z"/>
  </g>
  <g fill="url(#a2)" transform="translate(39,129) scale(0.75)" stroke="#fff" stroke-width="2">
    <path d="M3 3h100v100H3V3z"/>
    <path d="M203 3h100v100H203V3z"/>
    <path d="M103 3h100v100H103V3z"/>
    <path d="M103 103h100v100H103V103z"/>
  </g>
</svg>