<svg id="feynman" xmlns="http://www.w3.org/2000/svg" viewBox="90 -60 350 350">
  <path fill="none" stroke="#fff" stroke-width="2" d="M90 103h95l258-85M90 140h95l258 85m0-122H279l164-57m0 89-67 11 67 44"/>
  <path fill="none" stroke="#45A" stroke-width="1" d="M279 104s0 17-12 4m-12 5s0-17 12-5m-35 14s0-17 12-5m11-4s1 17-11 4m-59 23s0-17 12-5m11-4s1 17-11 4m35-13s0 17-12 4m-12 5s0-17 12-5"/>
  <path fill="none" stroke="#1A5" stroke-width="1" d="M371 137c3 7 1 8-1 10-3 1-4 0-5-2-1-1 0-3 2-4s5-1 8 5m-8-17c3 6 2 8-1 9s-4 0-5-1c-1-2 0-4 2-5s5-1 8 5m-8-17c3 7 2 8-1 10s-4 0-5-2c-1-1 0-3 2-4s5-1 8 5m-8-17c3 6 2 8-1 9-2 1-4 1-5-1s0-3 2-5c3-1 5-1 8 5m-8-17c3 7 2 9-1 10-2 1-4 0-5-1s0-4 3-5c2-1 5-1 7 5"/>
</svg>